<svg width="22" height="20" viewBox="0 0 22 20" fill="none" xmlns="http://www.w3.org/2000/svg">
<path d="M11.82 2.57998L11 3.40198L10.176 2.57798C9.16791 1.57003 7.8007 1.00382 6.37515 1.00391C4.94959 1.00401 3.58245 1.5704 2.5745 2.57848C1.56654 3.58657 1.00033 4.95378 1.00043 6.37934C1.00052 7.8049 1.56691 9.17203 2.575 10.18L10.47 18.075C10.6106 18.2154 10.8012 18.2943 11 18.2943C11.1988 18.2943 11.3894 18.2154 11.53 18.075L19.432 10.178C20.4389 9.16981 21.0044 7.80315 21.0042 6.37828C21.004 4.95341 20.4382 3.58689 19.431 2.57898C18.9314 2.07903 18.3381 1.68242 17.6852 1.41182C17.0322 1.14123 16.3323 1.00195 15.6255 1.00195C14.9187 1.00195 14.2188 1.14123 13.5658 1.41182C12.9129 1.68242 12.3196 2.07903 11.82 2.57898V2.57998Z" stroke="#ED3434" stroke-width="1.5"/>
</svg>
