<svg width="24" height="24" viewBox="0 0 24 24" fill="none" xmlns="http://www.w3.org/2000/svg">
<g clip-path="url(#clip0_2_1677)">
<path d="M12 0C5.38125 0 0 5.38125 0 12C0 18.6187 5.38125 24 12 24C18.6187 24 24 18.6187 24 12C24 5.38125 18.6187 0 12 0ZM16.7719 12.4219L9.77344 16.9219C9.68906 16.9734 9.59531 17.0016 9.50156 17.0016C9.41719 17.0016 9.3375 16.9828 9.2625 16.9406C9.10313 16.8516 9 16.6828 9 16.5V7.5C9 7.31719 9.09844 7.14844 9.2625 7.05938C9.42188 6.97031 9.61875 6.97969 9.77344 7.07812L16.7719 11.5781C16.9125 11.6719 17.0016 11.8266 17.0016 12C17.0016 12.1687 16.9125 12.3281 16.7719 12.4219Z" fill="#232323"/>
</g>
<defs>
<clipPath id="clip0_2_1677">
<rect width="24" height="24" fill="white"/>
</clipPath>
</defs>
</svg>
